<svg xmlns="http://www.w3.org/2000/svg" version="1.1" xmlns:xlink="http://www.w3.org/1999/xlink" xmlns:svgjs="http://svgjs.dev/svgjs" width="1500" height="1500" viewBox="0 0 1500 1500"><rect width="1500" height="1500" fill="#ffffff"></rect><g transform="matrix(0.6666666666666666,0,0,0.6666666666666666,249.39393939393938,438.58569500674776)"><svg viewBox="0 0 396 247" data-background-color="#ffffff" preserveAspectRatio="xMidYMid meet" height="935" width="1500" xmlns="http://www.w3.org/2000/svg" xmlns:xlink="http://www.w3.org/1999/xlink"><g id="tight-bounds" transform="matrix(1,0,0,1,0.2400000000000091,-0.09999999999999432)"><svg viewBox="0 0 395.52 247.2" height="247.2" width="395.52"><g><svg></svg></g><g><svg viewBox="0 0 395.52 247.2" height="247.2" width="395.52"><g transform="matrix(1,0,0,1,75.54432000000001,96.78447909137842)"><svg viewBox="0 0 244.43135999999996 53.63104181724315" height="53.63104181724315" width="244.43135999999996"><g><svg viewBox="0 0 244.43135999999996 53.63104181724315" height="53.63104181724315" width="244.43135999999996"><g><svg viewBox="0 0 244.43135999999996 53.63104181724315" height="53.63104181724315" width="244.43135999999996"><g><svg viewBox="0 0 244.43135999999996 53.63104181724315" height="53.63104181724315" width="244.43135999999996"><g id="textblocktransform"><svg viewBox="0 0 244.43135999999996 53.63104181724315" height="53.63104181724315" width="244.43135999999996" id="textblock"><g><svg viewBox="0 0 244.43135999999996 53.63104181724315" height="53.63104181724315" width="244.43135999999996"><g transform="matrix(1,0,0,1,0,0)"><svg width="244.43135999999996" viewBox="-2.54 -31.86 189.15 41.5" height="53.63104181724315" data-palette-color="#ff0000"><path d="M23.95-22.75L19.19-0.24Q18.7 2.1 17.5 3.93 16.31 5.76 14.58 7.03 12.84 8.3 10.72 8.97 8.59 9.64 6.2 9.64L6.2 9.64Q2.81 9.64 0.71 8.37-1.39 7.1-2.54 4.71L-2.54 4.71 0.1 2.91Q0.81 4.49 2.55 5.57 4.3 6.64 6.86 6.64L6.86 6.64Q10.3 6.64 12.7 4.9 15.09 3.15 15.8-0.15L15.8-0.15 16.36-2.59Q12.74 0.05 8.96 0.05L8.96 0.05Q3.59 0.05 1.2-3-1.2-6.05-0.05-11.35L-0.05-11.35Q0.49-13.94 1.75-16.13 3-18.31 4.82-19.91 6.64-21.51 8.97-22.4 11.3-23.29 13.94-23.29L13.94-23.29Q15.8-23.29 17.4-22.64 18.99-22 20.14-20.7L20.14-20.7 20.61-22.75 23.95-22.75ZM16.99-5.86L19.51-17.46Q18.36-19.04 16.78-19.75 15.21-20.46 13.31-20.46L13.31-20.46Q11.3-20.46 9.63-19.75 7.96-19.04 6.7-17.82 5.44-16.6 4.58-14.93 3.71-13.26 3.3-11.35L3.3-11.35Q2.44-7.45 3.97-5.13 5.49-2.81 9.55-2.81L9.55-2.81Q11.45-2.81 13.35-3.53 15.26-4.25 16.99-5.86L16.99-5.86ZM50.05-10.21L30.39-10.21Q30-6.59 31.8-4.44 33.59-2.29 37.25-2.29L37.25-2.29Q39.79-2.29 42.01-3.34 44.24-4.39 45.6-5.96L45.6-5.96 47.58-4.35Q45.38-1.95 42.73-0.7 40.09 0.56 36.64 0.56L36.64 0.56Q33.98 0.56 31.99-0.32 30-1.2 28.72-2.77 27.44-4.35 27.01-6.52 26.58-8.69 27.19-11.35L27.19-11.35Q27.73-13.94 28.99-16.13 30.25-18.31 32.09-19.91 33.93-21.51 36.29-22.4 38.64-23.29 41.28-23.29L41.28-23.29Q44.19-23.29 46.14-22.31 48.09-21.34 49.19-19.62 50.29-17.9 50.46-15.5 50.63-13.11 50.05-10.21L50.05-10.21ZM31.05-13.06L47.09-13.06Q47.34-16.8 45.57-18.63 43.8-20.46 40.65-20.46L40.65-20.46Q39.04-20.46 37.56-19.93 36.08-19.41 34.84-18.43 33.59-17.46 32.59-16.08 31.59-14.7 31.05-13.06L31.05-13.06ZM76.68-14.04L73.73 0 70.38 0 73.33-14.04Q73.99-17.09 73.02-18.77 72.04-20.46 69.09-20.46L69.09-20.46Q67.23-20.46 65.56-19.6 63.89-18.75 62.53-17.32 61.18-15.89 60.24-14.05 59.3-12.21 58.88-10.21L58.88-10.21 56.73 0 53.39 0 58.17-22.75 61.54-22.75 60.35-17.04Q64.08-23.29 70.28-23.29L70.28-23.29Q78.68-23.29 76.68-14.04L76.68-14.04ZM99.87-31.86L98.92-27.29 94.38-27.29 95.33-31.86 99.87-31.86ZM98.28-2.86L97.67 0 84.03 0 84.64-2.86 89.79-2.86 93.38-19.9 88.22-19.9 88.84-22.75 97.33-22.75 93.13-2.86 98.28-2.86ZM132.51-11.3L132.51-11.3Q131.92-8.64 130.62-6.47 129.31-4.3 127.42-2.75 125.53-1.2 123.12-0.32 120.72 0.56 118.01 0.56L118.01 0.56Q115.37 0.56 113.37-0.32 111.37-1.2 110.12-2.75 108.88-4.3 108.47-6.47 108.07-8.64 108.68-11.3L108.68-11.3Q109.22-13.89 110.55-16.13 111.88-18.36 113.77-19.93 115.66-21.51 118.07-22.4 120.47-23.29 123.11-23.29L123.11-23.29Q125.82-23.29 127.82-22.4 129.82-21.51 131.07-19.93 132.31-18.36 132.69-16.13 133.07-13.89 132.51-11.3ZM129.16-11.3L129.16-11.3Q129.58-13.26 129.35-14.9 129.12-16.55 128.24-17.8 127.36-19.04 125.92-19.75 124.48-20.46 122.48-20.46L122.48-20.46Q120.47-20.46 118.72-19.75 116.96-19.04 115.62-17.8 114.27-16.55 113.34-14.9 112.42-13.26 112.03-11.3L112.03-11.3Q111.56-9.35 111.79-7.7 112.03-6.05 112.87-4.86 113.71-3.66 115.16-2.98 116.62-2.29 118.62-2.29L118.62-2.29Q120.62-2.29 122.37-2.98 124.11-3.66 125.49-4.86 126.87-6.05 127.8-7.7 128.73-9.35 129.16-11.3ZM137.07-8.69L140.05-22.75 143.42-22.75 140.42-8.69Q139.81-5.64 140.76-3.97 141.71-2.29 144.67-2.29L144.67-2.29Q146.52-2.29 148.22-3.15 149.91-4 151.27-5.43 152.62-6.86 153.54-8.7 154.46-10.55 154.92-12.55L154.92-12.55 157.07-22.75 160.41-22.75 155.6 0 152.26 0 153.45-5.69Q149.72 0.56 143.52 0.56L143.52 0.56Q135.12 0.56 137.07-8.69L137.07-8.69ZM184.8-6.3L184.8-6.3Q184.41-4.3 183.13-2.98 181.85-1.66 180.1-0.88 178.35-0.1 176.33 0.23 174.3 0.56 172.45 0.56L172.45 0.56Q169.35 0.56 166.48-0.34 163.61-1.25 161.65-2.71L161.65-2.71 163.75-5.59Q165.95-4 168.2-3.15 170.44-2.29 173.06-2.29L173.06-2.29Q180.6-2.29 181.45-6.2L181.45-6.2Q181.65-7.15 181.15-7.75 180.65-8.35 179.67-8.73 178.7-9.11 177.4-9.33 176.11-9.55 174.64-9.74L174.64-9.74Q172.81-10.01 171.01-10.38 169.2-10.74 167.81-11.47 166.42-12.21 165.73-13.43 165.05-14.65 165.46-16.65L165.46-16.65Q165.85-18.36 166.98-19.6 168.1-20.85 169.72-21.68 171.35-22.51 173.4-22.9 175.45-23.29 177.55-23.29L177.55-23.29Q180.55-23.29 182.77-22.6 184.99-21.9 186.61-20.61L186.61-20.61 184.7-17.99Q183.07-19.36 181.16-19.91 179.26-20.46 176.91-20.46L176.91-20.46Q175.86-20.46 174.56-20.28 173.25-20.09 172.06-19.64 170.86-19.19 169.96-18.47 169.05-17.75 168.81-16.65L168.81-16.65Q168.61-15.7 169.11-15.12 169.61-14.55 170.58-14.17 171.54-13.79 172.85-13.57 174.15-13.35 175.6-13.16L175.6-13.16Q177.4-12.89 179.23-12.52 181.06-12.16 182.46-11.45 183.85-10.74 184.56-9.52 185.26-8.3 184.8-6.3Z" opacity="1" transform="matrix(1,0,0,1,0,0)" fill="#ff0000" class="wordmark-text-0" data-fill-palette-color="primary" id="text-0"></path></svg></g></svg></g></svg></g></svg></g></svg></g></svg></g></svg></g><g><path d="M245.816 0c68.262 0 123.6 55.338 123.6 123.6 0 68.262-55.338 123.6-123.6 123.6-56.781 0-104.619-38.288-119.106-90.454l2.513 0c14.418 50.814 61.159 88.036 116.593 88.036 66.927 0 121.182-54.255 121.181-121.182 0-66.927-54.255-121.182-121.181-121.182-55.434 0-102.175 37.222-116.593 88.036l-2.513 0c14.486-52.166 62.324-90.454 119.106-90.454z" fill="#ff0000" stroke="transparent" data-fill-palette-color="tertiary"></path></g></svg></g><defs></defs></svg><rect width="395.52" height="247.2" fill="none" stroke="none" visibility="hidden"></rect></g></svg></g></svg>